<svg width="352" height="169" viewBox="0 0 352 169" fill="none" xmlns="http://www.w3.org/2000/svg"><g filter="url(#filter0_d_59_347)"><path d="M154.263 40.9448C154.766 40.9127 155.272 40.8908 155.781 40.8793L155.995 40.8745H156.543C157.264 40.8745 157.979 40.8984 158.687 40.9448H174.503C174.577 40.9448 174.634 40.8792 174.623 40.8058C174.614 40.7433 174.655 40.6843 174.716 40.67L190.82 36.9386C191.757 36.7216 192.647 36.3372 193.447 35.8038C194.428 35.1495 198.339 32.5776 204.074 32.5776H208.017C208.313 32.5776 208.606 32.6453 208.873 32.7756C209.277 32.973 209.735 33.0211 210.176 32.9344C211.294 32.7151 212.522 32.5776 213.847 32.5776C216.738 32.5776 219.591 33.2374 222.189 34.5066L224.636 35.7025C230.986 38.8056 238.211 39.6285 245.097 38.0331L249.82 36.9386C250.757 36.7216 251.647 36.3372 252.447 35.8038C253.428 35.1495 257.339 32.5776 263.074 32.5776C265.965 32.5776 268.818 33.2374 271.415 34.5066L283.98 40.6464C285.037 41.1625 286.229 41.3125 287.394 41.1542L287.403 41.1529L287.411 41.1518C289.022 40.933 290.647 40.8218 292.281 40.8218C292.606 40.8218 292.924 40.7338 293.203 40.5685C296.83 38.422 301.268 36.8843 306.432 36.8843C308.453 36.8843 311.027 37.1093 313.811 37.9907C317.005 38.9934 319.849 40.7445 322.152 43.0469L322.289 43.184L322.423 43.3238C326.139 47.1942 328.139 52.276 328.139 57.5366C328.139 58.0945 328.116 58.6477 328.072 59.1953C327.681 64.0668 326.996 69.0498 326.996 73.937C326.996 78.5926 325.988 83.1019 324.056 87.2863C323.906 87.6124 323.975 87.998 324.228 88.2526C325.614 89.6481 326.9 91.2384 328.017 93.0398C328.063 93.1144 328.134 93.1704 328.218 93.1974L328.549 93.3043C328.705 93.3548 328.735 93.5629 328.599 93.6555C328.514 93.7137 328.488 93.8282 328.539 93.9181C330.889 98.0565 331.812 102.445 331.812 106.527C331.812 115.863 326.891 123.874 322.869 129.263L322.847 129.295C318.519 135.73 312.355 139.886 306.407 142.644L306.391 142.651L306.375 142.659C301.012 145.132 295.388 146.82 289.553 147.704C287.462 148.05 285.386 148.203 283.352 148.203C278.954 148.203 274.071 147.335 269.377 144.811L269.244 144.739L269.112 144.665C264.688 142.194 261.25 138.667 258.845 134.566C256.021 129.761 254.771 124.529 254.771 119.359C254.771 118.864 254.783 118.374 254.805 117.887C255.014 113.343 252.169 108.845 247.964 107.111L247.944 107.103L247.925 107.095C247.006 106.713 245.968 106.739 245.062 107.15C241.207 108.899 237.161 109.654 233.236 109.654H232.941L232.805 109.652C228.697 109.593 224.871 108.734 221.464 107.527L221.305 107.471L221.148 107.413C220.897 107.319 220.645 107.222 220.391 107.123C219.82 106.901 219.184 106.912 218.618 107.147C214.394 108.901 209.951 109.759 205.445 109.759C202.512 109.759 199.609 109.396 196.778 108.662C194.145 107.98 191.359 108.058 188.736 108.773L188.413 108.861L188.088 108.938C186.113 109.403 184.145 109.633 182.218 109.668L182.046 109.671H181.873C180.988 109.671 180.149 109.625 179.369 109.551L179.207 109.535L179.046 109.517C176.092 109.185 173.225 108.388 170.545 107.126C170.234 106.98 169.876 106.97 169.559 107.101C166.883 108.21 164.12 108.961 161.308 109.361C161.236 109.371 161.182 109.433 161.182 109.507C161.182 109.588 161.116 109.654 161.035 109.654H158.33C157.689 109.689 157.046 109.707 156.402 109.707C155.759 109.707 155.118 109.689 154.479 109.654H97.1232C96.4821 109.689 95.8394 109.707 95.1953 109.707C94.5523 109.707 93.9109 109.689 93.2716 109.654H77.4854H60.3561C55.7607 109.654 51.5957 106.95 49.7259 102.752L30.8443 60.3629C29.9419 58.337 28.1646 56.8334 26.0171 56.2793C22.805 55.4503 20.5605 52.5531 20.5605 49.2357V40.0598C20.5605 29.5007 29.1203 20.9409 39.6794 20.9409H100.502C106.026 20.9409 110.504 25.4189 110.504 30.9429C110.504 36.4668 114.982 40.9448 120.506 40.9448H154.263Z" fill="white"/></g><path fill-rule="evenodd" clip-rule="evenodd" d="M65.1367 90.6538H65.9102L86.0723 45.3901C86.5996 44.23 87.1738 43.2983 87.7949 42.5952C88.416 41.8921 89.002 41.3647 89.5527 41.0132C90.1152 40.6616 90.584 40.4272 90.959 40.3101L91.5039 40.1519V39.9409H84.7188V40.1519L84.8594 40.187C84.9531 40.2104 85.0703 40.2632 85.2109 40.3452C85.3516 40.4155 85.4863 40.5269 85.6152 40.6792C85.7559 40.8198 85.873 41.019 85.9668 41.2769C86.0723 41.5229 86.125 41.7456 86.125 41.9448V42.2964C86.125 43.0933 85.8496 44.1187 85.2988 45.3726L68.916 82.1812L52.5156 45.3726C51.9648 44.0952 51.6895 43.0581 51.6895 42.2612C51.6895 41.6987 51.7832 41.271 51.9707 40.978C52.2051 40.5562 52.4863 40.2983 52.8145 40.2046L52.9902 40.1519V39.9409H39.5605V40.1519L40.1055 40.2925C40.457 40.3979 40.9141 40.6206 41.4766 40.9604C42.8594 41.8276 44.0254 43.3042 44.9746 45.3901L65.1367 90.6538ZM181.17 90.6362C181.416 90.6597 181.65 90.6714 181.873 90.6714C182.518 90.6597 183.139 90.5835 183.736 90.4429C185.412 89.9858 186.766 89.1011 187.797 87.7886C188.055 87.519 188.184 87.2085 188.184 86.8569C188.184 86.4819 188.049 86.1655 187.779 85.9077C187.521 85.6499 187.205 85.521 186.83 85.521C186.408 85.521 186.057 85.6909 185.775 86.0308C185.588 86.2769 185.494 86.5757 185.494 86.9272C185.494 88.2163 185.078 89.0894 184.246 89.5464C183.859 89.687 183.537 89.769 183.279 89.7925C182.787 89.7925 182.4 89.5522 182.119 89.0718C181.838 88.5913 181.633 88.0112 181.504 87.3315C181.375 86.6401 181.293 85.9487 181.258 85.2573V60.6655H190.609V59.9624H181.258V51.5073L180.977 52.3862C180.789 52.9722 180.449 53.687 179.957 54.5308C178.715 56.6401 176.852 58.1812 174.367 59.1538C173.641 59.4351 172.908 59.6401 172.17 59.769C171.432 59.8979 170.535 59.9624 169.48 59.9624V60.6655H174.367C174.367 75.3843 174.361 82.8784 174.35 83.1479L174.367 83.5522C174.508 85.4624 175.205 87.0679 176.459 88.3687C177.725 89.6694 179.295 90.4253 181.17 90.6362ZM195.97 55.8843L195.882 55.269L197.324 54.9351C198.285 54.7124 199.375 54.3901 200.593 53.9683C201.812 53.5347 202.873 53.0073 203.775 52.3862C203.951 52.2222 204.039 52.0757 204.039 51.9468C204.039 51.8647 204.015 51.8003 203.968 51.7534L203.951 51.7007C203.951 51.6655 203.962 51.6362 203.986 51.6128C204.021 51.5894 204.05 51.5776 204.074 51.5776L207.167 53.0894L206.13 53.5464C205.427 53.8511 204.255 54.2202 202.615 54.6538C200.974 55.0757 198.759 55.4858 195.97 55.8843ZM199.539 89.5991C201.414 90.3726 203.383 90.7593 205.445 90.7593C207.508 90.7593 209.471 90.3726 211.334 89.5991C213.197 88.8257 214.861 87.7065 216.326 86.2417C217.803 84.7651 218.928 83.0952 219.701 81.2319C220.475 79.3569 220.861 77.394 220.861 75.3433C220.861 73.2808 220.475 71.3179 219.701 69.4546C218.928 67.5796 217.803 65.9097 216.326 64.4448C214.861 62.98 213.197 61.8608 211.334 61.0874C209.471 60.314 207.508 59.9272 205.445 59.9272C203.383 59.9272 201.414 60.314 199.539 61.0874C197.676 61.8608 196.012 62.98 194.547 64.4448C193.082 65.9097 191.963 67.5796 191.189 69.4546C190.416 71.3179 190.029 73.2808 190.029 75.3433C190.029 77.394 190.416 79.3569 191.189 81.2319C191.963 83.0952 193.082 84.7651 194.547 86.2417C196.012 87.7065 197.676 88.8257 199.539 89.5991ZM205.938 90.0386L205.445 90.0562L204.883 90.0386C203.559 89.8394 202.363 89.0718 201.297 87.7358C200.23 86.3882 199.381 84.6304 198.748 82.4624C198.127 80.2944 197.816 77.9097 197.816 75.3081C197.816 72.812 198.104 70.5151 198.678 68.4175C199.264 66.3198 200.049 64.5913 201.033 63.2319C202.018 61.8726 203.137 61.0171 204.391 60.6655C204.742 60.6421 205.094 60.6304 205.445 60.6304C205.773 60.6304 206.107 60.6421 206.447 60.6655C207.701 61.0054 208.82 61.8608 209.805 63.2319C210.789 64.5913 211.574 66.3198 212.16 68.4175C212.746 70.5151 213.039 72.812 213.039 75.3081C213.039 77.9097 212.723 80.2944 212.09 82.4624C211.457 84.6304 210.607 86.3882 209.541 87.7358C208.475 89.0718 207.273 89.8394 205.938 90.0386ZM205.656 55.269L205.744 55.8843C208.533 55.4858 210.748 55.0757 212.388 54.6538C214.029 54.2202 215.201 53.8511 215.904 53.5464L216.941 53.0894L213.847 51.5776C213.824 51.5776 213.794 51.5894 213.759 51.6128C213.736 51.6362 213.724 51.6655 213.724 51.7007L213.742 51.7534C213.789 51.8003 213.812 51.8647 213.812 51.9468C213.812 52.0757 213.724 52.2222 213.548 52.3862C212.646 53.0073 211.585 53.5347 210.367 53.9683C209.148 54.3901 208.058 54.7124 207.097 54.9351L205.656 55.269ZM254.97 55.8843L254.882 55.269L256.324 54.9351C257.285 54.7124 258.375 54.3901 259.593 53.9683C260.812 53.5347 261.873 53.0073 262.775 52.3862C262.951 52.2222 263.039 52.0757 263.039 51.9468C263.039 51.8647 263.015 51.8003 262.968 51.7534L262.951 51.7007C262.951 51.6655 262.962 51.6362 262.986 51.6128C263.021 51.5894 263.05 51.5776 263.074 51.5776L266.167 53.0894L265.13 53.5464L261.615 54.6538C259.974 55.0757 257.759 55.4858 254.97 55.8843ZM261.098 90.7065C259.047 90.7065 257.084 90.3198 255.209 89.5464C253.346 88.7729 251.676 87.6538 250.199 86.189C248.734 84.7124 247.615 83.0425 246.842 81.1792C246.068 79.3042 245.682 77.3413 245.682 75.2905C245.682 73.228 246.068 71.2651 246.842 69.4019C247.615 67.5386 248.734 65.8687 250.199 64.3921C253.176 61.4741 256.744 59.9683 260.904 59.8745H261.238C262.914 59.8745 264.625 60.1851 266.371 60.8062H266.406C267.484 61.2046 268.545 61.8022 269.588 62.5991C270.221 63.1147 270.812 63.7241 271.363 64.4272C272.688 66.1616 273.473 68.4116 273.719 71.1772C273.742 71.3999 273.754 71.6343 273.754 71.8804L254.295 71.8979V71.1948H266.898V70.6851C266.898 67.7788 266.447 65.3999 265.545 63.5483C265.229 62.9741 264.854 62.4526 264.42 61.9839L264.367 61.9312C263.875 61.4624 263.354 61.105 262.803 60.8589C262.393 60.7065 261.941 60.6128 261.449 60.5776C260.969 60.5776 260.617 60.5835 260.395 60.5952C259.82 60.6187 259.252 60.6772 258.689 60.771L257.916 60.9292C256.334 61.4331 255.098 62.2358 254.207 63.3374C253.316 64.4272 252.684 65.5347 252.309 66.6597L252.291 66.7124C252.232 66.8765 252.127 67.3335 251.975 68.0835C251.822 68.8218 251.746 69.7065 251.746 70.7378C251.746 71.6401 251.857 72.5952 252.08 73.603L252.133 73.7964C252.625 75.6831 253.457 77.5522 254.629 79.4038C256.258 81.9116 258.162 83.8569 260.342 85.2397C262.533 86.6226 264.666 87.314 266.74 87.314C268.205 87.314 269.553 86.939 270.783 86.189C271.1 85.9897 271.393 85.7612 271.662 85.5034C271.768 85.4214 271.861 85.3276 271.943 85.2222H272.893C271.252 87.1558 269.283 88.5972 266.986 89.5464C265.123 90.3198 263.16 90.7065 261.098 90.7065ZM283.352 129.203C281.43 129.203 279.771 128.828 278.377 128.078C277.076 127.351 276.027 126.308 275.23 124.949C274.258 123.296 273.771 121.433 273.771 119.359C273.771 116.933 274.463 114.314 275.846 111.501C278.248 106.626 281.699 102.654 286.199 99.5835C285.039 99.2085 284.137 98.8569 283.492 98.5288C282.566 98.0835 281.623 97.4683 280.662 96.6831C279.713 95.9097 279.062 94.9194 278.711 93.7124C278.629 93.3374 278.588 92.9565 278.588 92.5698C278.588 91.2573 279.062 89.9448 280.012 88.6323C280.117 88.48 280.229 88.3335 280.346 88.1929C281.26 87.1851 282.268 86.3003 283.369 85.5386C282.596 85.0581 281.869 84.519 281.189 83.9214C279.701 82.5737 278.559 81.0444 277.762 79.3335C276.977 77.6108 276.584 75.812 276.584 73.937C276.584 72.0503 276.977 70.2515 277.762 68.5405C278.559 66.8179 279.701 65.2886 281.189 63.9526C283.662 61.7612 286.586 60.437 289.961 59.98C290.734 59.8745 291.508 59.8218 292.281 59.8218C294.52 59.8218 296.676 60.2378 298.75 61.0698C299.324 60.144 300.109 59.2007 301.105 58.2397C302.84 56.6694 304.615 55.8843 306.432 55.8843C307.076 55.8843 307.633 55.9604 308.102 56.1128C308.336 56.1831 308.541 56.3062 308.717 56.4819C308.998 56.7749 309.139 57.1265 309.139 57.5366C309.139 57.9468 308.992 58.3042 308.699 58.6089C308.406 58.9019 308.055 59.0483 307.645 59.0483C307.34 59.0483 307.076 58.9722 306.854 58.8198C306.092 58.4448 305.248 58.2573 304.322 58.2573C302.869 58.2573 301.58 58.8315 300.455 59.98C300.139 60.3198 299.787 60.7769 299.4 61.3511C300.865 62.019 302.189 62.8862 303.373 63.9526C304.873 65.2886 306.016 66.8179 306.801 68.5405C307.598 70.2515 307.996 72.0503 307.996 73.937C307.996 75.812 307.598 77.6108 306.801 79.3335C306.016 81.0444 304.873 82.5737 303.373 83.9214C301.885 85.2573 300.186 86.2769 298.275 86.98C296.377 87.6831 294.379 88.0347 292.281 88.0347C289.328 88.0347 286.574 87.3315 284.02 85.9253C283.387 86.3823 282.766 86.8628 282.156 87.3667C282.074 87.5425 282.033 87.7593 282.033 88.0171L282.051 88.1929C282.074 88.6499 282.373 89.2065 282.947 89.8628C283.521 90.5073 284.559 91.2163 286.059 91.9897C287.57 92.7749 289.727 93.6011 292.527 94.4683C293.992 94.9136 295.457 95.3354 296.922 95.7339C298.586 96.1909 300.191 96.6597 301.738 97.1401C303.297 97.6206 304.744 98.1421 306.08 98.7046C307.416 99.2788 308.588 99.9292 309.596 100.656C310.604 101.394 311.389 102.238 311.951 103.187C312.525 104.148 312.812 105.261 312.812 106.527C312.812 109.574 310.979 113.511 307.311 118.339L307.082 118.691C305.324 121.304 302.436 123.542 298.416 125.406C294.631 127.152 290.682 128.33 286.568 128.939C285.549 129.115 284.477 129.203 283.352 129.203ZM292.281 87.3315L292.949 87.314C294.32 87.103 295.545 86.3882 296.623 85.1694C297.713 83.939 298.58 82.3452 299.225 80.3882C299.869 78.4194 300.191 76.2632 300.191 73.9194C300.191 71.6108 299.881 69.4956 299.26 67.5737C298.65 65.6519 297.818 64.0757 296.764 62.8452C295.721 61.603 294.543 60.8413 293.23 60.5601L292.281 60.5249L291.402 60.5601C290.078 60.8296 288.889 61.5854 287.834 62.8276C286.791 64.0581 285.959 65.6401 285.338 67.5737C284.729 69.4956 284.424 71.6108 284.424 73.9194C284.424 76.2749 284.746 78.4312 285.391 80.3882C286.035 82.3452 286.902 83.939 287.992 85.1694C289.246 86.5757 290.676 87.2964 292.281 87.3315ZM291.332 126.337C292.363 126.337 293.295 126.255 294.127 126.091C295.463 125.81 296.523 125.482 297.309 125.107L297.414 125.072C297.66 124.978 297.895 124.878 298.117 124.773C303.461 122.3 306.719 119.171 307.891 115.386C308.195 114.378 308.348 113.371 308.348 112.363C308.348 110.921 308.014 109.591 307.346 108.373C306.596 107.142 305.652 106.169 304.516 105.455C303.391 104.74 302.312 104.218 301.281 103.89C300.508 103.632 299.195 103.263 297.344 102.783L296.43 102.537C293.242 101.693 290.119 100.802 287.061 99.8647C285.326 101.001 283.727 102.285 282.262 103.714C281.266 104.992 280.387 106.427 279.625 108.021C278.582 110.212 278.061 112.328 278.061 114.367C278.061 116.957 278.963 119.289 280.768 121.363C281.951 122.664 283.152 123.677 284.371 124.404C286.539 125.693 288.859 126.337 291.332 126.337ZM233.078 90.6538H233.236C235.229 90.6538 236.963 90.1558 238.439 89.1597C238.697 88.9839 238.932 88.8081 239.143 88.6323C240.338 87.6597 241.316 86.646 242.078 85.5913C243.145 84.1265 243.678 82.6147 243.678 81.0562C243.678 78.8062 242.482 76.5972 240.092 74.4292L239.354 73.7788C237.947 72.5366 236.676 71.5522 235.539 70.8257C231.648 68.353 228.924 66.355 227.365 64.8315C226.182 63.6831 225.59 62.8101 225.59 62.2124C225.59 61.8726 226.012 61.4858 226.855 61.0522C227.348 60.8296 227.91 60.7183 228.543 60.7183C229.738 60.7183 231.039 61.0815 232.445 61.8081C233.852 62.5229 235.082 63.5073 236.137 64.7612C236.477 65.3472 236.986 65.7397 237.666 65.939C237.877 65.9976 238.094 66.0269 238.316 66.0269C239.008 66.0269 239.6 65.7808 240.092 65.2886C240.584 64.7847 240.83 64.187 240.83 63.4956C240.83 62.9214 240.66 62.4175 240.32 61.9839C240.051 61.6206 239.711 61.3569 239.301 61.1929C238.305 60.7944 236.998 60.4077 235.381 60.0327C233.775 59.6577 232.311 59.4702 230.986 59.4702C228.502 59.4702 226.574 60.0972 225.203 61.3511C223.422 62.9917 222.531 64.6909 222.531 66.4487V66.7476C222.695 69.1382 224.494 71.5347 227.928 73.937L229.316 74.8862C230.324 75.5776 231.426 76.3628 232.621 77.2417C233.816 78.1089 234.953 79.0288 236.031 80.0015C236.816 80.7046 237.479 81.3843 238.018 82.0405C238.674 82.8374 239.137 83.7808 239.406 84.8706C239.465 85.1636 239.494 85.4683 239.494 85.7847C239.494 86.8042 239.137 87.6479 238.422 88.3159L238.053 88.5796C237.49 88.9546 236.91 89.2476 236.312 89.4585C235.996 89.5171 235.68 89.5464 235.363 89.5464C233.875 89.5464 232.387 88.8843 230.898 87.5601C229.75 86.5288 228.736 85.3276 227.857 83.9565H227.84L227.33 83.1304C227.037 82.5562 226.891 82.0171 226.891 81.5132C226.891 81.2788 226.908 81.103 226.943 80.9858L227.014 80.7925L226.855 80.6694L222.162 86.7866C222.572 87.0562 223.176 87.4194 223.973 87.8765C224.992 88.4624 226.27 89.0425 227.805 89.6167C229.691 90.2847 231.449 90.6304 233.078 90.6538ZM156.402 90.7065C154.352 90.7065 152.389 90.3198 150.514 89.5464C148.65 88.7729 146.98 87.6538 145.504 86.189C144.039 84.7124 142.92 83.0425 142.146 81.1792C141.373 79.3042 140.986 77.3413 140.986 75.2905C140.986 73.228 141.373 71.2651 142.146 69.4019C142.92 67.5386 144.039 65.8687 145.504 64.3921C148.48 61.4741 152.049 59.9683 156.209 59.8745H156.543C158.219 59.8745 159.93 60.1851 161.676 60.8062H161.711C162.789 61.2046 163.85 61.8022 164.893 62.5991C165.525 63.1147 166.117 63.7241 166.668 64.4272C167.992 66.1616 168.777 68.4116 169.023 71.1772C169.047 71.3999 169.059 71.6343 169.059 71.8804L149.6 71.8979V71.1948H162.203V70.6851C162.203 67.7788 161.752 65.3999 160.85 63.5483C160.533 62.9741 160.158 62.4526 159.725 61.9839L159.672 61.9312C159.18 61.4624 158.658 61.105 158.107 60.8589C157.697 60.7065 157.246 60.6128 156.754 60.5776C156.273 60.5776 155.922 60.5835 155.699 60.5952C155.125 60.6187 154.557 60.6772 153.994 60.771L153.221 60.9292C151.639 61.4331 150.402 62.2358 149.512 63.3374C148.621 64.4272 147.988 65.5347 147.613 66.6597L147.596 66.7124C147.537 66.8765 147.432 67.3335 147.279 68.0835C147.127 68.8218 147.051 69.7065 147.051 70.7378C147.051 71.6401 147.162 72.5952 147.385 73.603L147.438 73.7964C147.93 75.6831 148.762 77.5522 149.934 79.4038C151.562 81.9116 153.467 83.8569 155.646 85.2397C157.838 86.6226 159.971 87.314 162.045 87.314C163.51 87.314 164.857 86.939 166.088 86.189C166.404 85.9897 166.697 85.7612 166.967 85.5034C167.072 85.4214 167.166 85.3276 167.248 85.2222H168.197C166.557 87.1558 164.588 88.5972 162.291 89.5464C160.428 90.3198 158.465 90.7065 156.402 90.7065ZM106.955 90.6538H142.182V87.4897H141.971L141.918 87.6655C141.883 87.7944 141.807 87.9526 141.689 88.1401C141.584 88.3276 141.414 88.5269 141.18 88.7378C140.945 88.9487 140.629 89.1479 140.23 89.3354C139.844 89.5229 139.357 89.6753 138.771 89.7925C138.279 89.8862 137.705 89.939 137.049 89.9507H116.43L140.986 59.9448H110.26V63.1089H110.471L110.541 62.8804C110.576 62.728 110.676 62.5405 110.84 62.3179C111.004 62.0835 111.25 61.8491 111.578 61.6147C111.918 61.3687 112.369 61.1577 112.932 60.9819C113.506 60.8062 114.227 60.6948 115.094 60.6479H131.494L106.955 90.6538ZM95.1953 90.7065C93.1445 90.7065 91.1816 90.3198 89.3066 89.5464C87.4434 88.7729 85.7734 87.6538 84.2969 86.189C82.832 84.7124 81.7129 83.0425 80.9395 81.1792C80.166 79.3042 79.7793 77.3413 79.7793 75.2905C79.7793 73.228 80.166 71.2651 80.9395 69.4019C81.7129 67.5386 82.832 65.8687 84.2969 64.3921C87.2734 61.4741 90.8418 59.9683 95.002 59.8745H95.3359C97.0117 59.8745 98.7227 60.1851 100.469 60.8062H100.504C101.582 61.2046 102.643 61.8022 103.686 62.5991C104.318 63.1147 104.91 63.7241 105.461 64.4272C106.785 66.1616 107.57 68.4116 107.816 71.1772C107.84 71.3999 107.852 71.6343 107.852 71.8804L88.3926 71.8979V71.1948H100.996V70.6851C100.996 67.7788 100.545 65.3999 99.6426 63.5483C99.3262 62.9741 98.9512 62.4526 98.5176 61.9839L98.4648 61.9312C97.9727 61.4624 97.4512 61.105 96.9004 60.8589C96.4902 60.7065 96.0391 60.6128 95.5469 60.5776C95.0664 60.5776 94.7148 60.5835 94.4922 60.5952C93.918 60.6187 93.3496 60.6772 92.7871 60.771L92.0137 60.9292C90.4316 61.4331 89.1953 62.2358 88.3047 63.3374C87.4141 64.4272 86.7812 65.5347 86.4062 66.6597L86.3887 66.7124C86.3301 66.8765 86.2246 67.3335 86.0723 68.0835C85.9199 68.8218 85.8438 69.7065 85.8438 70.7378C85.8438 71.6401 85.9551 72.5952 86.1777 73.603L86.2305 73.7964C86.7227 75.6831 87.5547 77.5522 88.7266 79.4038C90.3555 81.9116 92.2598 83.8569 94.4395 85.2397C96.6309 86.6226 98.7637 87.314 100.838 87.314C102.303 87.314 103.65 86.939 104.881 86.189C105.197 85.9897 105.49 85.7612 105.76 85.5034C105.865 85.4214 105.959 85.3276 106.041 85.2222H106.99C105.35 87.1558 103.381 88.5972 101.084 89.5464C99.2207 90.3198 97.2578 90.7065 95.1953 90.7065Z" fill="#451DE3"/><defs><filter id="filter0_d_59_347" x="0.560547" y="0.940918" width="351.252" height="167.262" filterUnits="userSpaceOnUse" color-interpolation-filters="sRGB"><feFlood flood-opacity="0" result="BackgroundImageFix"/><feColorMatrix in="SourceAlpha" type="matrix" values="0 0 0 0 0 0 0 0 0 0 0 0 0 0 0 0 0 0 127 0" result="hardAlpha"/><feOffset/><feGaussianBlur stdDeviation="10"/><feComposite in2="hardAlpha" operator="out"/><feColorMatrix type="matrix" values="0 0 0 0 0 0 0 0 0 0 0 0 0 0 0 0 0 0 0.1 0"/><feBlend mode="normal" in2="BackgroundImageFix" result="effect1_dropShadow_59_347"/><feBlend mode="normal" in="SourceGraphic" in2="effect1_dropShadow_59_347" result="shape"/></filter></defs></svg>