<svg width="42" height="43" viewBox="0 0 42 43" fill="none" xmlns="http://www.w3.org/2000/svg">
<rect y="0.816406" width="41.7483" height="41.7483" rx="10" fill="#D1C6FF"/>
<path fill-rule="evenodd" clip-rule="evenodd" d="M31.7538 13.8053C31.4352 13.9054 31.12 14.0199 30.8097 14.1494C31.0019 14.4177 31.1852 14.6981 31.3586 14.991C31.0966 14.5484 31.2631 13.9595 31.7538 13.8053Z" fill="#451DE3"/>
<path fill-rule="evenodd" clip-rule="evenodd" d="M20.1452 9.18066C13.5747 9.5635 8.3645 15.0131 8.3645 21.6796C8.3645 28.5944 13.9701 34.2 20.8849 34.2V30.2C16.1792 30.2 12.3645 26.3853 12.3645 21.6796C12.3645 16.9739 16.1792 13.1592 20.8849 13.1592C21.5452 13.1592 22.3876 13.2655 23.2782 13.5308C23.8038 13.6873 23.944 14.3356 23.6081 14.7691C22.2722 16.4935 21.2526 18.6505 20.7136 21.2776C20.2294 23.638 20.6449 25.7374 21.7624 27.3191C22.8642 28.8786 24.5564 29.7937 26.3238 29.9319C28.1072 30.0714 29.9498 29.4162 31.2847 27.9066C32.6132 26.4042 33.2844 24.2414 33.1764 21.5979C33.0666 18.9129 32.3888 16.7319 31.3586 14.991C31.1852 14.6981 31.0019 14.4177 30.8097 14.1494C31.12 14.0199 31.4352 13.9054 31.7538 13.8053C31.8641 13.7707 31.9747 13.7377 32.0857 13.7065C32.5158 13.5855 32.9496 13.4903 33.3837 13.4194V9.38083C32.5822 9.4784 31.7845 9.63595 31.0023 9.85603C30.0254 10.1309 29.0682 10.5045 28.1528 10.9819C27.8883 11.1198 27.5703 11.1097 27.3138 10.9573C25.3294 9.77825 23.2145 9.28449 21.5559 9.18066H20.1452ZM28.0029 17.1786C27.7611 16.7484 27.1775 16.7089 26.8692 17.0943C25.8447 18.3752 25.0554 20.0177 24.632 22.0816C24.3362 23.5231 24.6402 24.4603 25.0293 25.011C25.434 25.5839 26.0353 25.8971 26.6357 25.9441C27.22 25.9898 27.8194 25.7871 28.2882 25.2569C28.7634 24.7195 29.2574 23.6605 29.1797 21.7613C29.1004 19.8224 28.6504 18.331 28.0029 17.1786Z" fill="#451DE3"/>
</svg>