<svg width="932" height="360" viewBox="0 0 932 360" fill="none" xmlns="http://www.w3.org/2000/svg">
<g filter="url(#filter0_bd_28_41)">
<path d="M103.69 101.566C114.602 101.566 123.448 110.412 123.448 121.324V232.322C123.448 235.501 121.341 238.294 118.284 239.168C115.228 240.041 113.121 242.834 113.121 246.013V270.439C113.121 292.254 130.806 309.94 152.622 309.94H198.521C198.602 309.94 198.667 310.005 198.667 310.086C198.667 310.167 198.733 310.233 198.814 310.233H316.331C321.649 310.233 325.959 305.922 325.959 300.604V281.782C325.959 279.415 328.944 278.27 330.611 279.95L330.72 280.06L330.83 280.169C349.365 298.557 363.224 309.549 386.96 320.27C386.96 330.488 395.283 339.026 405.5 339.026H526.5C536.717 339.026 544.996 330.377 544.996 320.159H552.77C554.723 320.159 556.306 318.576 556.306 316.623V315.124C556.306 313.242 558.259 311.99 559.996 312.712L560.036 312.728L560.076 312.745C572.686 317.946 585.949 320.525 599.557 320.525C609.733 320.525 619.72 319.083 629.383 316.167C630.733 315.759 632.115 316.756 632.115 318.166C632.115 319.307 633.04 320.233 634.181 320.233H710.407C737.469 320.233 759.407 298.295 759.407 271.233V242.849C759.407 241.676 760.069 240.605 761.118 240.081L765.353 237.966C765.466 237.909 765.599 237.991 765.599 238.118L765.525 239.812L765.698 243.775L765.741 244.36C766.952 260.812 773.328 276.24 785.273 288.631L785.336 288.696L785.399 288.761C797.228 300.919 812.228 307.924 828.62 309.768L828.951 309.806L829.282 309.837C831.405 310.039 833.621 310.159 835.91 310.159H836.264L836.619 310.153C841.936 310.056 847.288 309.422 852.606 308.17L853.273 308.013L853.935 307.833C868.219 303.937 880.821 296.048 890.411 284.301C897.023 276.604 901.204 266.526 901.204 255.266C901.204 243.266 896.451 231.872 887.784 223.424C886.135 221.807 884.39 220.342 882.564 219.029C876.885 214.947 872.346 208.926 872.346 201.932C872.346 192.655 879.866 185.135 889.143 185.135H891.829C902.588 185.135 911.311 176.412 911.311 165.652V144.67C911.311 122.322 893.194 104.205 870.846 104.205H852.565C849.654 104.205 846.747 103.98 843.872 103.531L799.06 96.5357C797.415 96.2788 795.827 97.2589 795.32 98.8451C795.269 99.0028 795.208 99.1567 795.133 99.3041C794.956 99.6497 794.681 100.162 794.279 100.854C793.935 101.433 793.307 102.376 790.494 103.49C789.799 103.755 789.24 103.897 788.797 103.976C788.78 103.979 788.764 103.982 788.747 103.985C788.707 103.991 788.616 104.005 788.468 104.022C788.261 104.046 787.966 104.076 787.575 104.104C786.78 104.161 785.693 104.205 784.274 104.205H745.973C745.587 104.205 745.274 104.518 745.274 104.904C745.274 105.242 745.032 105.531 744.7 105.594C736.199 107.214 728.291 110.449 721.153 114.858L720.718 115.126L720.291 115.406C714.044 119.494 708.454 124.256 703.489 129.56C702.522 130.593 700.913 130.689 699.798 129.819L699.646 129.701L699.459 129.558C698.709 128.984 697.139 127.784 694.854 126.443C693.773 125.81 693.373 124.418 694.018 123.344C694.635 122.315 694.304 120.976 693.244 120.415C689.945 118.668 686.72 117.546 683.754 116.837C683.714 116.827 683.687 116.791 683.687 116.75C683.688 116.702 683.65 116.662 683.602 116.661C683.532 116.659 683.464 116.657 683.396 116.655L683.403 116.654C683.403 116.654 683.403 116.647 683.402 116.647C683.375 116.648 683.342 116.65 683.304 116.651C683.132 116.644 682.966 116.634 682.803 116.621C679.436 115.901 676.444 115.704 674.118 115.704C673.606 115.704 673.097 115.714 672.588 115.732C661.343 116.143 649.438 116.187 639.045 111.873C626.435 106.638 613.165 104.059 599.557 104.059C593.896 104.059 589.506 97.8618 590.586 92.3046C591.166 89.3205 591.462 86.2573 591.462 83.1466C591.462 76.5578 590.11 70.0942 587.496 64.0806L586.933 62.7856L586.277 61.5347C584.494 58.1306 581.766 53.822 577.625 49.7058C575.032 47.0655 572.08 44.6839 568.786 42.6613C555.825 34.1108 540.983 29.3517 524.997 29.3517C512.407 29.3517 500.363 32.3586 489.314 38.0133C478.392 43.5794 469.228 51.327 461.731 60.4715L461.611 60.6177L461.493 60.765C452.518 71.9311 446.382 84.3878 442.867 97.6844C441.84 101.568 438.423 104.425 434.406 104.425H426.837C426.381 104.425 426.011 104.795 426.011 105.251C426.011 105.78 425.521 106.172 425.003 106.062C418.243 104.615 411.327 103.839 404.293 103.839H402.462L402.023 103.849C386.677 104.195 372.264 107.602 359.125 113.919C359.083 113.939 359.032 113.934 358.995 113.906C358.989 113.901 358.982 113.897 358.975 113.893L356.613 112.712C353.507 110.945 350.338 109.6 347.204 108.607C339.247 105.756 332.917 98.7763 332.917 90.3242V65.7714C332.917 40.8437 312.71 20.6358 287.782 20.6358H66.2808C41.1011 20.6358 20.689 41.048 20.689 66.2276V72.3259C20.689 94.1376 38.3708 111.819 60.1825 111.819H85.8618C88.8922 111.819 91.5338 109.757 92.2688 106.817C92.945 104.112 95.2464 102.114 98.0273 101.91C99.7869 101.781 101.673 101.665 103.69 101.566Z" fill="white" fill-opacity="0.7" shape-rendering="crispEdges"/>
</g>
<path d="M200.812 270.354H151.594V269.475L152.619 269.182C154.572 268.596 156.403 267.058 158.112 264.567C160.456 261.101 161.726 255.9 161.921 248.967V78.9717C161.384 70.4756 159.309 64.8115 155.695 61.9795H102.229C86.457 62.7119 74.9336 64.3965 67.6582 67.0332C65.0215 67.9609 63.0684 68.9375 61.7988 69.9629C60.8711 70.7441 60.3096 71.4033 60.1143 71.9404L60.041 72.2334H59.1621V59.0498H293.391V72.2334H292.512L292.365 71.9404C292.219 71.4033 291.682 70.7686 290.754 70.0361C289.484 69.0107 287.531 68.0098 284.895 67.0332C277.619 64.3965 266.071 62.7119 250.251 61.9795H196.857C193.244 64.8115 191.169 70.4756 190.632 78.9717V251.237C191.071 257.39 192.438 262.004 194.733 265.08C196.394 267.326 198.103 268.693 199.86 269.182L200.812 269.475V270.354ZM286.433 270.646H237.141V269.768L238.166 269.475C240.168 268.84 242.048 267.18 243.806 264.494C246.198 260.734 247.395 255.217 247.395 247.941V185.1C247.297 179.338 246.955 174.748 246.369 171.33C245.344 165.324 243.83 161.54 241.828 159.978C240.998 159.343 240.314 159.025 239.777 159.025C238.361 158.684 237.653 157.878 237.653 156.608C237.653 155.925 237.897 155.339 238.386 154.851C238.874 154.362 239.46 154.118 240.144 154.118C240.534 154.118 240.852 154.191 241.096 154.338C243.684 154.777 246.32 155.021 249.006 155.07C253.449 155.07 257.331 154.484 260.651 153.312C264.021 152.092 266.828 150.7 269.074 149.138C271.32 147.526 273.029 146.11 274.201 144.89C275.422 143.62 276.081 142.888 276.179 142.692V195.866C277.155 192.985 278.278 190.007 279.548 186.931C282.331 179.851 286.042 172.6 290.681 165.178C295.368 157.707 301.032 151.799 307.673 147.453C312.653 144.377 317.805 142.839 323.127 142.839C326.789 142.839 330.524 143.571 334.333 145.036C335.456 145.329 336.457 145.769 337.336 146.354L337.775 146.574C340.607 148.723 342.023 151.481 342.023 154.851C342.023 157.683 341.022 160.1 339.021 162.102C337.067 164.055 334.675 165.031 331.843 165.031C329.499 165.031 327.399 164.299 325.544 162.834C321.394 160.686 317.023 159.611 312.434 159.611C309.846 159.611 307.111 160.1 304.23 161.076C297.883 163.225 292.268 168.449 287.385 176.75C282.844 185.783 279.108 195.329 276.179 205.388V249.846C276.228 251.457 276.35 252.922 276.545 254.24C277.229 259.074 278.376 262.59 279.987 264.787C281.696 267.326 283.503 268.889 285.407 269.475L286.433 269.768V270.646ZM403.181 270.72C394.636 270.72 386.457 269.108 378.645 265.886C370.881 262.663 363.923 258 357.771 251.896C351.667 245.744 347.004 238.786 343.781 231.022C340.559 223.21 338.947 215.031 338.947 206.486C338.947 197.893 340.559 189.714 343.781 181.95C347.004 174.187 351.667 167.229 357.771 161.076C370.173 148.918 385.041 142.644 402.375 142.253H403.767C410.749 142.253 417.878 143.547 425.153 146.135H425.3C429.792 147.795 434.211 150.285 438.557 153.605C441.193 155.754 443.659 158.293 445.954 161.223C451.472 168.449 454.743 177.824 455.769 189.348C455.866 190.275 455.915 191.252 455.915 192.277L374.836 192.351V189.421H427.351V187.297C427.351 175.188 425.471 165.275 421.711 157.561C420.393 155.168 418.83 152.995 417.023 151.042L416.804 150.822C414.753 148.869 412.58 147.38 410.285 146.354C408.576 145.72 406.696 145.329 404.646 145.183C402.644 145.183 401.179 145.207 400.251 145.256C397.858 145.354 395.49 145.598 393.146 145.988L389.924 146.647C383.332 148.747 378.181 152.092 374.47 156.682C370.759 161.223 368.122 165.837 366.56 170.524L366.486 170.744C366.242 171.428 365.803 173.332 365.168 176.457C364.533 179.533 364.216 183.22 364.216 187.517C364.216 191.276 364.68 195.256 365.607 199.455L365.827 200.261C367.878 208.122 371.345 215.91 376.228 223.625C383.015 234.074 390.949 242.18 400.031 247.941C409.162 253.703 418.049 256.584 426.691 256.584C432.795 256.584 438.41 255.021 443.537 251.896C444.855 251.066 446.076 250.114 447.199 249.04C447.639 248.698 448.029 248.308 448.371 247.868H452.326C445.49 255.925 437.287 261.931 427.717 265.886C419.953 269.108 411.774 270.72 403.181 270.72ZM516.779 270.573H467.487V269.694L468.513 269.401C470.515 268.815 472.395 267.155 474.152 264.421C476.594 260.661 477.814 255.144 477.814 247.868V145.769H464.484V142.839H477.814V127.604L477.741 124.821C477.741 123.894 477.766 122.99 477.814 122.111C478.449 107.561 482.966 95.0605 491.364 84.6113C495.808 79.1914 500.861 75.041 506.525 72.1602C512.238 69.2305 518.22 67.7656 524.47 67.7656C532.673 67.7656 540.339 70.207 547.468 75.0898C548.2 75.4805 548.859 75.9932 549.445 76.6279C550.08 77.2139 550.666 78.0195 551.203 79.0449C551.691 80.168 551.936 81.3398 551.936 82.5605C551.936 84.9043 551.105 86.9063 549.445 88.5664C547.834 90.2266 545.856 91.0566 543.513 91.0566C540.388 91.0566 537.946 89.6895 536.188 86.9551C535.407 85.5879 535.017 84.123 535.017 82.5605C535.017 80.5098 534.675 78.5566 533.991 76.7012C532.478 72.6973 529.304 70.6953 524.47 70.6953H524.177C524.128 70.7441 524.055 70.7686 523.957 70.7686C517.561 70.7686 513.02 74.3086 510.334 81.3887C507.795 88.127 506.525 98.7715 506.525 113.322V142.839H539.924V145.769H506.525V249.479C506.623 253.239 507.038 256.389 507.771 258.928C508.503 261.418 509.357 263.396 510.334 264.86C511.359 266.325 512.36 267.424 513.337 268.156C514.313 268.84 515.144 269.255 515.827 269.401L516.779 269.694V270.573ZM599.03 270.939C590.437 270.939 582.233 269.328 574.421 266.105C566.657 262.883 559.724 258.22 553.62 252.116C547.517 245.964 542.854 239.006 539.631 231.242C536.408 223.43 534.797 215.251 534.797 206.706C534.797 198.112 536.408 189.934 539.631 182.17C542.854 174.357 547.517 167.399 553.62 161.296C559.724 155.192 566.657 150.529 574.421 147.307C582.233 144.084 590.437 142.473 599.03 142.473C607.624 142.473 615.803 144.084 623.566 147.307C631.33 150.529 638.264 155.192 644.367 161.296C650.52 167.399 655.207 174.357 658.43 182.17C661.652 189.934 663.264 198.112 663.264 206.706C663.264 215.251 661.652 223.43 658.43 231.242C655.207 239.006 650.52 245.964 644.367 252.116C638.264 258.22 631.33 262.883 623.566 266.105C615.803 269.328 607.624 270.939 599.03 270.939ZM599.03 268.01L601.081 267.937C606.647 267.106 611.652 263.908 616.096 258.342C620.539 252.727 624.079 245.402 626.716 236.369C629.353 227.336 630.671 217.399 630.671 206.56C630.671 196.159 629.45 186.589 627.009 177.849C624.567 169.108 621.296 161.906 617.194 156.242C613.093 150.529 608.43 146.965 603.205 145.549C601.789 145.451 600.397 145.402 599.03 145.402C597.565 145.402 596.101 145.451 594.636 145.549C589.411 147.014 584.748 150.578 580.646 156.242C576.545 161.906 573.273 169.108 570.832 177.849C568.439 186.589 567.243 196.159 567.243 206.56C567.243 217.399 568.537 227.336 571.125 236.369C573.762 245.402 577.302 252.727 581.745 258.342C586.188 263.908 591.169 267.106 596.687 267.937L599.03 268.01ZM719.88 270.646H670.588V269.768L671.613 269.475C673.615 268.84 675.495 267.18 677.253 264.494C679.646 260.734 680.842 255.217 680.842 247.941V185.1C680.744 179.338 680.402 174.748 679.816 171.33C678.791 165.324 677.277 161.54 675.275 159.978C674.445 159.343 673.762 159.025 673.225 159.025C671.809 158.684 671.101 157.878 671.101 156.608C671.101 155.925 671.345 155.339 671.833 154.851C672.321 154.362 672.907 154.118 673.591 154.118C673.981 154.118 674.299 154.191 674.543 154.338C677.131 154.777 679.768 155.021 682.453 155.07C686.896 155.07 690.778 154.484 694.099 153.312C697.468 152.092 700.275 150.7 702.521 149.138C704.768 147.526 706.477 146.11 707.648 144.89C708.869 143.62 709.528 142.888 709.626 142.692V195.866C710.603 192.985 711.726 190.007 712.995 186.931C715.778 179.851 719.489 172.6 724.128 165.178C728.815 157.707 734.479 151.799 741.12 147.453C746.101 144.377 751.252 142.839 756.574 142.839C760.236 142.839 763.972 143.571 767.78 145.036C768.903 145.329 769.904 145.769 770.783 146.354L771.223 146.574C774.055 148.723 775.471 151.481 775.471 154.851C775.471 157.683 774.47 160.1 772.468 162.102C770.515 164.055 768.122 165.031 765.29 165.031C762.946 165.031 760.847 164.299 758.991 162.834C754.841 160.686 750.471 159.611 745.881 159.611C743.293 159.611 740.559 160.1 737.678 161.076C731.33 163.225 725.715 168.449 720.832 176.75C716.291 185.783 712.556 195.329 709.626 205.388V249.846C709.675 251.457 709.797 252.922 709.992 254.24C710.676 259.074 711.823 262.59 713.435 264.787C715.144 267.326 716.95 268.889 718.854 269.475L719.88 269.768V270.646ZM835.383 270.573C834.455 270.573 833.479 270.524 832.453 270.427C824.641 269.548 818.098 266.398 812.824 260.979C807.6 255.559 804.694 248.869 804.108 240.91L804.035 239.226C804.084 238.103 804.108 206.877 804.108 145.549H783.747V142.619C788.142 142.619 791.877 142.351 794.953 141.813C798.029 141.276 801.081 140.422 804.108 139.25C814.46 135.197 822.224 128.776 827.399 119.987C829.45 116.472 830.866 113.493 831.647 111.052L832.819 107.39V142.619H871.784V145.549H832.819V248.015C832.966 250.896 833.308 253.776 833.845 256.657C834.382 259.489 835.236 261.906 836.408 263.908C837.58 265.91 839.191 266.911 841.242 266.911C842.316 266.813 843.659 266.472 845.271 265.886C848.737 263.981 850.471 260.344 850.471 254.973C850.471 253.508 850.861 252.263 851.643 251.237C852.814 249.821 854.279 249.113 856.037 249.113C857.6 249.113 858.918 249.65 859.992 250.725C861.115 251.799 861.677 253.117 861.677 254.68C861.677 256.145 861.14 257.438 860.065 258.562C855.769 264.03 850.129 267.717 843.146 269.621C840.656 270.207 838.068 270.524 835.383 270.573Z" fill="#451DE3"/>
<defs>
<filter id="filter0_bd_28_41" x="-29.311" y="-29.3642" width="990.622" height="418.39" filterUnits="userSpaceOnUse" color-interpolation-filters="sRGB">
<feFlood flood-opacity="0" result="BackgroundImageFix"/>
<feGaussianBlur in="BackgroundImageFix" stdDeviation="25"/>
<feComposite in2="SourceAlpha" operator="in" result="effect1_backgroundBlur_28_41"/>
<feColorMatrix in="SourceAlpha" type="matrix" values="0 0 0 0 0 0 0 0 0 0 0 0 0 0 0 0 0 0 127 0" result="hardAlpha"/>
<feOffset/>
<feGaussianBlur stdDeviation="10"/>
<feComposite in2="hardAlpha" operator="out"/>
<feColorMatrix type="matrix" values="0 0 0 0 0 0 0 0 0 0 0 0 0 0 0 0 0 0 0.1 0"/>
<feBlend mode="normal" in2="effect1_backgroundBlur_28_41" result="effect2_dropShadow_28_41"/>
<feBlend mode="normal" in="SourceGraphic" in2="effect2_dropShadow_28_41" result="shape"/>
</filter>
</defs>
</svg>
